# AST/ASF file generated using VICON BodyLanguage
# -----------------------------------------------
:version 1.10
:name VICON
:units
  mass 1.0
  length 0.45
  angle deg
:documentation
   .ast/.asf automatically generated from VICON data using
   VICON BodyBuilder and BodyLanguage model FoxedUp or BRILLIANT.MOD
:root
   order TX TY TZ RX RY RZ
   axis XYZ
   position 0 0 0  
   orientation 0 0 0 
:bonedata
  begin
     id 1 
     name lhipjoint
     direction 0.660183 -0.676772 0.325788 
     length 2.75133 
     axis 0 0 0  XYZ
  end
  begin
     id 2 
     name lfemur
     direction 0.34202 -0.939693 0  
     length 7.70317  
     axis 0 0 20  XYZ
    dof rx ry rz
    limits (-160.0 20.0)
           (-70.0 70.0)
           (-60.0 70.0)
  end
  begin
     id 3 
     name ltibia
     direction 0.342105 -0.939662 0   
     length 7.18701   
     axis 0 0 20   XYZ
    dof rx
    limits (-10.0 170.0)
  end
  begin
     id 4 
     name lfoot
     direction 0.14163 -0.389126 0.910232   
     length 2.41719   
     axis -90 7.62852e-016 20   XYZ
    dof rx rz
    limits (-45.0 90.0)
           (-70.0 20.0)
  end
  begin
     id 5 
     name ltoes
     direction 1.53533e-011 -4.21926e-011 1   
     length 1.18611   
     axis -90 7.62852e-016 20   XYZ
    dof rx
    limits (-90.0 20.0)
  end
  begin
     id 6 
     name rhipjoint
     direction -0.6658 -0.67229 0.323631   
     length 2.76968  
     axis 0 0 0  XYZ 
  end
  begin
     id 7 
     name rfemur
     direction -0.34202 -0.939693 0   
     length 7.92547   
     axis 0 0 -20   XYZ
    dof rx ry rz
    limits (-160.0 20.0)
           (-70.0 70.0)
           (-70.0 60.0)
  end
  begin
     id 8 
     name rtibia
     direction -0.342022 -0.939692 0   
     length 7.22641   
     axis 0 0 -20   XYZ
    dof rx
    limits (-10.0 170.0)
 end
 begin
     id 9 
     name rfoot
     direction -0.105675 -0.29034 0.951071   
     length 2.48149  
     axis -90 -7.62852e-016 -20   XYZ
    dof rx rz
    limits (-45.0 90.0)
           (-20.0 70.0)
  end
  begin
     id 10 
     name rtoes
     direction -1.5349e-011 -4.21859e-011 1   
     length 1.23343   
     axis -90 -7.62852e-016 -20   XYZ
    dof rx
    limits (-90.0 20.0)
  end
  begin
     id 11 
     name lowerback
     direction 0.0104173 0.993624 -0.112266   
     length 2.00527   
     axis 0 0 0   XYZ
    dof rx ry rz
    limits (-20.0 45.0)
           (-30.0 30.0)
           (-30.0 30.0)
  end
  begin
     id 12 
     name upperback
     direction 0.00733149 0.999856 -0.0152913   
     length 2.01385   
     axis 0 0 0   XYZ
    dof rx ry rz
    limits (-20.0 45.0)
           (-30.0 30.0)
           (-30.0 30.0)
  end
  begin
     id 13 
     name thorax
     direction 0.0026304 0.999318 0.036841   
     length 2.03734   
     axis 0 0 0   XYZ
    dof rx ry rz
    limits (-20.0 45.0)
           (-30.0 30.0)
           (-30.0 30.0)
  end
  begin
     id 14 
     name lowerneck
     direction 0.0293154 0.998757 0.0403082   
     length 1.65303   
     axis 0 0 0   XYZ
    dof rx ry rz
    limits (-20.0 45.0)
           (-30.0 30.0)
           (-30.0 30.0)
  end
  begin
     id 15 
     name upperneck
     direction -0.0376619 0.998184 -0.0470083   
     length 1.60926   
     axis 0 0 0   XYZ
    dof rx ry rz
    limits (-20.0 45.0)
           (-30.0 30.0)
           (-30.0 30.0)
  end
  begin
     id 16
     name head
     direction -0.0170133 0.999635 -0.0209778  
     length 1.73625  
     axis 0 0 0   XYZ
    dof rx ry rz
    limits (-20.0 45.0)
           (-30.0 30.0)
           (-30.0 30.0)
  end
  begin
     id 17 
     name lclavicle
     direction 0.919857 0.39181 -0.0186333  
     length 3.75313  
     axis 0 0 0   XYZ
    dof ry rz
    limits (-20.0 10.0)
           (0.0 20.0)
  end
  begin
     id 18 
     name lhumerus
     direction 1 -4.48988e-011 1.44029e-027   
     length 5.49313   
     axis 180 -30 -90   XYZ
    dof rx ry rz
    limits (-60.0 90.0)
           (-90.0 90.0)
           (-90.0 90.0)
  end
  begin
     id 19
     name lradius
     direction 1 -4.48924e-011 7.46281e-027   
     length 3.29037   
     axis 180 -30 -90   XYZ
    dof rx
    limits (-10.0 170.0)
  end
  begin
     id 20
     name lwrist
     direction 1 -4.48955e-011 2.19879e-026   
     length 1.64519   
     axis -1.34358e-014 90 90   XYZ
    dof ry
    limits (-180.0 0.0)
 end
  begin
     id 21 
     name lhand
     direction 1 -4.48978e-011 4.39747e-026   
     length 0.729656   
     axis -2.80598e-014 90 90   XYZ
    dof rx rz
    limits (-90.0 90.0)
           (-45.0 45.0)
  end
  begin
     id 22 
     name lfingers
     direction 1 -4.49071e-011 8.79411e-026   
     length 0.588268   
     axis -5.61193e-014 90 90   XYZ
    dof rx
    limits (0.0 90.0)
  end
  begin
     id 23
     name lthumb
     direction 0.707107 -6.34817e-011 0.707107   
     length 0.844638   
     axis -90 45 -9.86923e-015   XYZ
    dof rx rz
    limits (-45.0 45.0)
           (-45.0 45.0)
  end
  begin
     id 24 
     name rclavicle
     direction -0.919898 0.388279 0.0550233   
     length 3.7171  
     axis 0 0 0   XYZ 
    dof ry rz
    limits (-10.0 20.0)
           (-20.0 0.0)
  end
  begin
     id 25 
     name rhumerus
     direction -1 -4.48968e-011 9.98372e-028  
     length 5.23684   
     axis 180 30 90   XYZ
    dof rx ry rz
    limits (-90.0 60.0)
           (-90.0 90.0)
           (-90.0 90.0)
  end
  begin
     id 26 
     name rradius
     direction -1 -4.48956e-011 1.01023e-026   
     length 3.38251   
     axis 180 30 90   XYZ
    dof rx
    limits (-10.0 170.0)
  end
  begin
     id 27 
     name rwrist
     direction -1 -4.4892e-011 2.19886e-026   
     length 1.69126   
     axis -1.34358e-014 -90 -90   XYZ
    dof ry
    limits (-180.0 0.0)
  end
  begin
     id 28
     name rhand
     direction -1 -4.49024e-011 4.39727e-026   
     length 0.691454   
     axis -2.80598e-014 -90 -90   XYZ
    dof rx rz
    limits (-90.0 90.0)
           (-45.0 45.0)
  end
  begin
     id 29
     name rfingers
     direction -1 -4.49097e-011 8.79388e-026   
     length 0.557468   
     axis -5.61193e-014 -90 -90   XYZ
    dof rx
    limits (0.0 90.0)
  end
  begin
     id 30
     name rthumb
     direction -0.707107 -6.34938e-011 0.707107   
     length 0.800416   
     axis -90 -45 9.86923e-015   XYZ
    dof rx rz
    limits (-45.0 45.0)
           (-45.0 45.0)
  end
:hierarchy
  begin
    root lhipjoint rhipjoint lowerback
    lhipjoint lfemur
    lfemur ltibia
    ltibia lfoot
    lfoot ltoes
    rhipjoint rfemur
    rfemur rtibia
    rtibia rfoot
    rfoot rtoes
    lowerback upperback
    upperback thorax
    thorax lowerneck lclavicle rclavicle
    lowerneck upperneck
    upperneck head
    lclavicle lhumerus
    lhumerus lradius
    lradius lwrist
    lwrist lhand lthumb
    lhand lfingers
    rclavicle rhumerus
    rhumerus rradius
    rradius rwrist
    rwrist rhand rthumb
    rhand rfingers
  end

#!OML:ASF H:\BabyWalks\Project 1\Capture day 1\Session 1\baby.ASF
:FULLY-SPECIFIED
:DEGREES
1
root -37.466 17.5867 -3.18319 -9.06836 70.8695 -10.1306
lowerback 15.9217 -1.03861 -0.911888
upperback 6.58569 -1.09956 3.0677
thorax -1.84422 -0.477623 3.9273
lowerneck -6.33364 6.24881 -3.32202
upperneck -1.73274 8.63685 -3.59251
head 0.521286 4.32519 -0.361493
rclavicle 1.98785e-016 3.24019e-014
rhumerus -35.2506 23.1838 -82.888
rradius 51.2786
rwrist 2.2498
rhand -6.94977 -16.2768
rfingers 7.12502
rthumb 18.9191 -45.3767
lclavicle 1.98785e-016 3.24019e-014
lhumerus -37.3562 3.36848 80.8543
lradius 51.1288
lwrist 0.839346
lhand 0.354236 12.0798
lfingers 7.12502
lthumb 25.9296 40.3314
rfemur -2.45369 14.5847 24.1895
rtibia 23.1229
rfoot -25.6158 2.79816
rtoes 21.8149
lfemur -17.9496 -0.836146 -11.3981
ltibia 31.292
lfoot -12.8555 -13.0648
ltoes 24.6181
2
root -37.47 17.5862 -3.17976 -9.22136 70.9229 -10.2697
lowerback 15.9378 -1.04169 -0.841036
upperback 6.59051 -1.09172 3.07831
thorax -1.84971 -0.47224 3.89718
lowerneck -5.86398 6.36715 -2.91555
upperneck -2.19438 8.7357 -4.10237
head 0.34423 4.38671 -0.601615
rclavicle -1.30204e-014 -2.56432e-014
rhumerus -35.2031 23.1169 -82.8179
rradius 51.1736
rwrist 2.33211
rhand -6.88946 -16.3927
rfingers 7.12502
rthumb 18.9771 -45.4869
lclavicle -1.30204e-014 -2.56432e-014
lhumerus -37.3549 3.34146 80.8664
lradius 51.0646
lwrist 0.843407
lhand 0.411753 12.0454
lfingers 7.12502
lthumb 25.9847 40.2889
rfemur -2.42826 14.5697 24.2524
rtibia 23.0861
rfoot -25.6057 2.75502
rtoes 21.781
lfemur -17.98 -0.787242 -11.3481
ltibia 31.3332
lfoot -12.8676 -13.1417
ltoes 24.4764
3
root -37.4725 17.5852 -3.17742 -9.24915 71.0354 -10.2997
lowerback 15.8835 -1.06402 -0.786751
upperback 6.60922 -1.11309 3.07647
thorax -1.80102 -0.482397 3.86624
lowerneck -5.41222 6.4777 -2.50118
upperneck -2.62403 8.82674 -4.6251
head 0.183998 4.44435 -0.846634
rclavicle 3.61788e-014 -3.18055e-015
rhumerus -35.1343 23.038 -82.7164
rradius 51.0373
rwrist 2.38811
rhand -6.8849 -16.3697
rfingers 7.12502
rthumb 18.9815 -45.4635
lclavicle 3.61788e-014 -3.18055e-015
lhumerus -37.334 3.31314 80.8854
lradius 51.0173
lwrist 0.829219
lhand 0.427381 12.0442
lfingers 7.12502
lthumb 25.9997 40.2855
rfemur -2.39208 14.4873 24.2534
rtibia 23.0412
rfoot -25.6181 2.73778
rtoes 21.8282
lfemur -18.0449 -0.778995 -11.3573
ltibia 31.3829
lfoot -12.863 -13.2386
ltoes 24.3503
4
root -37.4763 17.5844 -3.17426 -9.33009 71.1392 -10.3721
lowerback 15.8659 -1.08396 -0.735099
upperback 6.61893 -1.13077 3.08483
thorax -1.78125 -0.490367 3.84806
lowerneck -4.50041 6.72488 -1.59127
upperneck -3.50393 9.04213 -5.8035
head -0.130366 4.58038 -1.40049
rclavicle 2.09718e-014 -3.1408e-014
rhumerus -35.0637 22.9457 -82.6032
rradius 50.9208
rwrist 2.43741
rhand -6.74506 -16.3558
rfingers 7.12502
rthumb 19.116 -45.4364
lclavicle 2.09718e-014 -3.1408e-014
lhumerus -37.3391 3.25936 80.9133
lradius 50.9775
lwrist 0.85054
lhand 0.470686 12.0297
lfingers 7.12502
lthumb 26.0411 40.2649
rfemur -2.35257 14.386 24.269
rtibia 22.9814
rfoot -25.5924 2.7426
rtoes 21.7848
lfemur -18.1065 -0.719071 -11.3498
ltibia 31.4495
lfoot -12.8581 -13.3893
ltoes 24.2964
5
root -37.4781 17.5809 -3.16985 -9.47006 71.1949 -10.5064
lowerback 15.8268 -1.08487 -0.663253
upperback 6.61563 -1.12144 3.09783
thorax -1.76624 -0.484828 3.81836
lowerneck -4.76204 6.60718 -1.81362
upperneck -3.11861 8.92009 -5.38971
head -0.00232711 4.50567 -1.22059
rclavicle 3.03147e-014 -3.37934e-014
rhumerus -35.0333 22.8482 -82.5292
rradius 50.7475
rwrist 2.4882
rhand -6.82234 -16.3269
rfingers 7.12502
rthumb 19.0417 -45.4148
lclavicle 3.03147e-014 -3.37934e-014
lhumerus -37.3647 3.16428 80.9607
lradius 50.9021
lwrist 0.804744
lhand 0.44216 12.0578
lfingers 7.12502
lthumb 26.0138 40.297
rfemur -2.27225 14.3305 24.3251
rtibia 22.9032
rfoot -25.5306 2.72121
rtoes 21.5411
lfemur -18.1607 -0.564706 -11.3083
ltibia 31.5399
lfoot -13.0143 -13.4835
ltoes 23.7753
6
root -37.4804 17.5777 -3.16622 -9.60792 71.2693 -10.6376
lowerback 15.7983 -1.09551 -0.590208
upperback 6.61591 -1.12435 3.10957
thorax -1.7522 -0.485201 3.78892
lowerneck -4.56506 6.63043 -1.60804
upperneck -3.23887 8.92916 -5.59497
head -0.0515461 4.51414 -1.32653
rclavicle 7.89175e-014 -5.28767e-014
rhumerus -34.993 22.7583 -82.4399
rradius 50.6027
rwrist 2.54598
rhand -6.80947 -16.3336
rfingers 7.12502
rthumb 19.0541 -45.4203
lclavicle 7.89175e-014 -5.28767e-014
lhumerus -37.3806 3.09401 80.9976
lradius 50.8408
lwrist 0.785299
lhand 0.456513 12.072
lfingers 7.12502
lthumb 26.0276 40.3092
rfemur -2.18514 14.2581 24.3736
rtibia 22.805
rfoot -25.4853 2.70395
rtoes 21.3989
lfemur -18.2314 -0.46363 -11.2723
ltibia 31.6502
lfoot -13.1184 -13.6086
ltoes 23.4803
